<mxfile host="Electron" modified="2024-02-19T18:25:56.912Z" agent="Mozilla/5.0 (Windows NT 10.0; Win64; x64) AppleWebKit/537.36 (KHTML, like Gecko) draw.io/21.8.2 Chrome/114.0.5735.289 Electron/25.8.1 Safari/537.36" etag="PPldx7t_FSG6wW2D2bQV" version="21.8.2" type="device">
  <diagram name="PÃ¡gina-1" id="A5byljAF4gIBBFzxNZuJ">
    <mxGraphModel dx="1434" dy="844" grid="1" gridSize="10" guides="1" tooltips="1" connect="1" arrows="1" fold="1" page="1" pageScale="1" pageWidth="827" pageHeight="1169" math="0" shadow="0">
      <root>
        <mxCell id="0" />
        <mxCell id="1" parent="0" />
        <mxCell id="B2-OJPn5XKvoqbjlG_Sg-1" value="" style="ellipse;whiteSpace=wrap;html=1;aspect=fixed;" vertex="1" parent="1">
          <mxGeometry x="370" y="390" width="80" height="80" as="geometry" />
        </mxCell>
        <mxCell id="B2-OJPn5XKvoqbjlG_Sg-2" value="" style="ellipse;whiteSpace=wrap;html=1;aspect=fixed;" vertex="1" parent="1">
          <mxGeometry x="540" y="720" width="80" height="80" as="geometry" />
        </mxCell>
        <mxCell id="B2-OJPn5XKvoqbjlG_Sg-3" value="" style="ellipse;whiteSpace=wrap;html=1;aspect=fixed;" vertex="1" parent="1">
          <mxGeometry x="370" y="870" width="80" height="80" as="geometry" />
        </mxCell>
        <mxCell id="B2-OJPn5XKvoqbjlG_Sg-4" value="" style="ellipse;whiteSpace=wrap;html=1;aspect=fixed;" vertex="1" parent="1">
          <mxGeometry x="540" y="545" width="80" height="80" as="geometry" />
        </mxCell>
        <mxCell id="B2-OJPn5XKvoqbjlG_Sg-8" value="" style="shape=flexArrow;endArrow=classic;html=1;rounded=0;" edge="1" parent="1" source="B2-OJPn5XKvoqbjlG_Sg-4" target="B2-OJPn5XKvoqbjlG_Sg-3">
          <mxGeometry width="50" height="50" relative="1" as="geometry">
            <mxPoint x="710" y="690" as="sourcePoint" />
            <mxPoint x="440" y="610" as="targetPoint" />
            <Array as="points">
              <mxPoint x="740" y="780" />
            </Array>
          </mxGeometry>
        </mxCell>
        <mxCell id="B2-OJPn5XKvoqbjlG_Sg-9" value="" style="shape=flexArrow;endArrow=classic;html=1;rounded=0;" edge="1" parent="1" source="B2-OJPn5XKvoqbjlG_Sg-1" target="B2-OJPn5XKvoqbjlG_Sg-3">
          <mxGeometry width="50" height="50" relative="1" as="geometry">
            <mxPoint x="390" y="660" as="sourcePoint" />
            <mxPoint x="440" y="610" as="targetPoint" />
          </mxGeometry>
        </mxCell>
        <mxCell id="B2-OJPn5XKvoqbjlG_Sg-10" value="" style="shape=flexArrow;endArrow=classic;html=1;rounded=0;exitX=0.063;exitY=0.813;exitDx=0;exitDy=0;exitPerimeter=0;" edge="1" parent="1" source="B2-OJPn5XKvoqbjlG_Sg-2" target="B2-OJPn5XKvoqbjlG_Sg-3">
          <mxGeometry width="50" height="50" relative="1" as="geometry">
            <mxPoint x="390" y="660" as="sourcePoint" />
            <mxPoint x="440" y="610" as="targetPoint" />
          </mxGeometry>
        </mxCell>
        <mxCell id="B2-OJPn5XKvoqbjlG_Sg-11" value="" style="shape=flexArrow;endArrow=classic;html=1;rounded=0;" edge="1" parent="1" source="B2-OJPn5XKvoqbjlG_Sg-1" target="B2-OJPn5XKvoqbjlG_Sg-4">
          <mxGeometry width="50" height="50" relative="1" as="geometry">
            <mxPoint x="390" y="660" as="sourcePoint" />
            <mxPoint x="440" y="610" as="targetPoint" />
          </mxGeometry>
        </mxCell>
        <mxCell id="B2-OJPn5XKvoqbjlG_Sg-13" value="" style="shape=flexArrow;endArrow=classic;html=1;rounded=0;" edge="1" parent="1" source="B2-OJPn5XKvoqbjlG_Sg-4" target="B2-OJPn5XKvoqbjlG_Sg-2">
          <mxGeometry width="50" height="50" relative="1" as="geometry">
            <mxPoint x="390" y="660" as="sourcePoint" />
            <mxPoint x="440" y="610" as="targetPoint" />
          </mxGeometry>
        </mxCell>
      </root>
    </mxGraphModel>
  </diagram>
</mxfile>
